<svg xmlns="http://www.w3.org/2000/svg" width="800" height="600" viewBox="0 0 800 600" version="1.1"><path d="M 334.477 171.929 C 317.342 174.647, 304.512 181.392, 294.330 193.033 C 264.541 227.092, 251.190 263.520, 257.510 293.500 C 261.185 310.930, 267.144 323.327, 284.462 349.567 C 310.359 388.807, 314 397.492, 314 420.031 L 314 428.178 304.333 423.013 C 269.158 404.219, 239.560 374.646, 221.164 339.917 C 207.273 313.691, 200.187 289.123, 197.754 258.750 C 196.709 245.695, 196.368 244, 194.786 244 C 193.223 244, 193.002 244.968, 193.020 251.750 C 193.081 276.280, 201.318 309.449, 213.609 334.665 C 242.949 394.857, 299.633 437.132, 366.500 448.691 C 379.235 450.893, 418.212 451.177, 430.985 449.161 C 497.739 438.626, 556.247 395.736, 585.899 335.598 C 598.523 309.996, 606.961 276.052, 606.992 250.750 C 606.999 244.912, 606.757 244, 605.199 244 C 603.601 244, 603.262 245.660, 602.184 258.750 C 599.247 294.412, 588.727 325.590, 569.838 354.608 L 562.870 365.313 556.356 358.907 C 538.475 341.321, 524.756 319.651, 520.012 301.500 C 518.493 295.687, 518.084 295.094, 515.223 294.543 C 511.979 293.918, 511.651 296.844, 513.902 306.325 C 518.454 325.491, 531.465 347.078, 549.991 366.201 L 556.569 372.991 549.044 381.169 C 526.352 405.831, 494.315 426.447, 462.445 436.899 C 418.300 451.377, 367.034 449.758, 324.903 432.556 C 323.579 432.015, 323.388 430.637, 323.782 424.494 C 324.348 415.673, 322.607 400.668, 319.860 390.693 C 317.154 380.865, 309.506 366.774, 295.657 346.096 C 289.245 336.524, 284.004 328.199, 284.009 327.596 C 284.014 326.993, 286.826 324.701, 290.259 322.502 C 295.949 318.856, 317.660 298.241, 326.069 288.500 C 337.366 275.412, 352.942 254.266, 364.774 235.953 C 374.925 220.242, 380.102 207.308, 381.366 194.500 C 381.637 191.750, 381.891 189.431, 381.930 189.346 C 382.324 188.485, 405.308 199.550, 415 205.267 C 421.070 208.848, 434.077 217.231, 445.488 224.916 C 480.968 248.811, 476.173 246.420, 485.431 244.831 C 486.799 244.597, 487.540 245.228, 487.975 246.998 C 488.411 248.770, 489.448 249.651, 491.545 250.030 C 493.520 250.388, 494.413 251.090, 494.237 252.149 C 493.829 254.604, 496.610 256.328, 499.744 255.563 C 501.260 255.194, 504.075 254.559, 506 254.154 C 509.092 253.502, 509.475 253.080, 509.288 250.537 C 509.137 248.480, 510.049 246.581, 512.482 243.889 C 521.320 234.105, 521.137 224.662, 512.019 220.010 C 502.870 215.342, 493.997 218.380, 484.623 229.389 C 481.863 232.631, 479.180 234.899, 478.442 234.616 C 477.724 234.341, 468.219 228.163, 457.319 220.889 C 412.749 191.144, 388.006 178.669, 363.500 173.590 C 354.388 171.701, 340.812 170.924, 334.477 171.929 M 409.544 243.344 C 408.221 244.311, 407.884 245.401, 408.342 247.225 C 408.989 249.804, 411.332 250.956, 416 250.991 C 417.375 251.002, 420.300 252.119, 422.500 253.474 C 428.697 257.291, 436 256.230, 436 251.513 C 436 249.472, 429.011 244.372, 424.500 243.121 C 419.043 241.607, 411.771 241.716, 409.544 243.344 M 510.247 256.032 C 509.008 256.530, 506.308 257.039, 504.247 257.163 C 500.060 257.414, 499.012 258.332, 499.739 261.111 C 500.298 263.249, 504.693 263.603, 511.391 262.050 C 516.555 260.852, 518.799 258.668, 517.042 256.550 C 515.612 254.827, 513.623 254.676, 510.247 256.032 M 515.275 263.859 C 508.677 264.733, 507.161 266.064, 509.198 269.199 C 510.020 270.464, 511.621 274.093, 512.755 277.263 C 514.460 282.027, 514.620 283.547, 513.680 286.038 C 511.862 290.853, 513.468 292.257, 521.360 292.751 C 534.198 293.554, 544.173 288.927, 545.561 281.526 C 546.419 276.955, 543.193 270.011, 538.574 266.488 C 535.463 264.116, 533.822 263.654, 527.705 263.430 C 523.742 263.285, 518.149 263.478, 515.275 263.859 M 412.637 317.957 C 407.876 323.047, 407.564 323.701, 408.607 326.418 C 409.686 329.231, 413.190 328.137, 416.904 323.828 C 422.935 316.831, 423.329 316.101, 421.964 314.457 C 419.866 311.929, 417.416 312.848, 412.637 317.957 M 431.613 323.650 C 428.008 327.204, 426.967 328.913, 427.198 330.900 C 427.423 332.836, 428.146 333.575, 430.026 333.795 C 432.037 334.030, 433.260 333.129, 436.026 329.374 C 437.937 326.780, 439.909 324.121, 440.409 323.465 C 441.727 321.735, 440.372 319, 438.196 319 C 437.170 319, 434.207 321.093, 431.613 323.650" stroke="none" fill="#433323" fill-rule="evenodd"/><path d="M 0 300.001 L 0 600.002 400.250 599.751 L 800.500 599.500 800.752 299.750 L 801.003 0 400.502 0 L 0 0 0 300.001 M 0.493 300.500 C 0.493 465.500, 0.609 532.851, 0.750 450.169 C 0.891 367.487, 0.891 232.487, 0.750 150.169 C 0.609 67.851, 0.493 135.500, 0.493 300.500 M 334.477 171.929 C 317.342 174.647, 304.512 181.392, 294.330 193.033 C 264.541 227.092, 251.190 263.520, 257.510 293.500 C 261.185 310.930, 267.144 323.327, 284.462 349.567 C 310.359 388.807, 314 397.492, 314 420.031 L 314 428.178 304.333 423.013 C 269.158 404.219, 239.560 374.646, 221.164 339.917 C 207.273 313.691, 200.187 289.123, 197.754 258.750 C 196.709 245.695, 196.368 244, 194.786 244 C 193.223 244, 193.002 244.968, 193.020 251.750 C 193.081 276.280, 201.318 309.449, 213.609 334.665 C 242.949 394.857, 299.633 437.132, 366.500 448.691 C 379.235 450.893, 418.212 451.177, 430.985 449.161 C 497.739 438.626, 556.247 395.736, 585.899 335.598 C 598.523 309.996, 606.961 276.052, 606.992 250.750 C 606.999 244.912, 606.757 244, 605.199 244 C 603.601 244, 603.262 245.660, 602.184 258.750 C 599.247 294.412, 588.727 325.590, 569.838 354.608 L 562.870 365.313 556.356 358.907 C 538.475 341.321, 524.756 319.651, 520.012 301.500 C 518.493 295.687, 518.084 295.094, 515.223 294.543 C 511.979 293.918, 511.651 296.844, 513.902 306.325 C 518.454 325.491, 531.465 347.078, 549.991 366.201 L 556.569 372.991 549.044 381.169 C 526.352 405.831, 494.315 426.447, 462.445 436.899 C 418.300 451.377, 367.034 449.758, 324.903 432.556 C 323.579 432.015, 323.388 430.637, 323.782 424.494 C 324.348 415.673, 322.607 400.668, 319.860 390.693 C 317.154 380.865, 309.506 366.774, 295.657 346.096 C 289.245 336.524, 284.004 328.199, 284.009 327.596 C 284.014 326.993, 286.826 324.701, 290.259 322.502 C 295.949 318.856, 317.660 298.241, 326.069 288.500 C 337.366 275.412, 352.942 254.266, 364.774 235.953 C 374.925 220.242, 380.102 207.308, 381.366 194.500 C 381.637 191.750, 381.891 189.431, 381.930 189.346 C 382.324 188.485, 405.308 199.550, 415 205.267 C 421.070 208.848, 434.077 217.231, 445.488 224.916 C 480.968 248.811, 476.173 246.420, 485.431 244.831 C 486.799 244.597, 487.540 245.228, 487.975 246.998 C 488.411 248.770, 489.448 249.651, 491.545 250.030 C 493.520 250.388, 494.413 251.090, 494.237 252.149 C 493.829 254.604, 496.610 256.328, 499.744 255.563 C 501.260 255.194, 504.075 254.559, 506 254.154 C 509.092 253.502, 509.475 253.080, 509.288 250.537 C 509.137 248.480, 510.049 246.581, 512.482 243.889 C 521.320 234.105, 521.137 224.662, 512.019 220.010 C 502.870 215.342, 493.997 218.380, 484.623 229.389 C 481.863 232.631, 479.180 234.899, 478.442 234.616 C 477.724 234.341, 468.219 228.163, 457.319 220.889 C 412.749 191.144, 388.006 178.669, 363.500 173.590 C 354.388 171.701, 340.812 170.924, 334.477 171.929 M 409.544 243.344 C 408.221 244.311, 407.884 245.401, 408.342 247.225 C 408.989 249.804, 411.332 250.956, 416 250.991 C 417.375 251.002, 420.300 252.119, 422.500 253.474 C 428.697 257.291, 436 256.230, 436 251.513 C 436 249.472, 429.011 244.372, 424.500 243.121 C 419.043 241.607, 411.771 241.716, 409.544 243.344 M 510.247 256.032 C 509.008 256.530, 506.308 257.039, 504.247 257.163 C 500.060 257.414, 499.012 258.332, 499.739 261.111 C 500.298 263.249, 504.693 263.603, 511.391 262.050 C 516.555 260.852, 518.799 258.668, 517.042 256.550 C 515.612 254.827, 513.623 254.676, 510.247 256.032 M 515.275 263.859 C 508.677 264.733, 507.161 266.064, 509.198 269.199 C 510.020 270.464, 511.621 274.093, 512.755 277.263 C 514.460 282.027, 514.620 283.547, 513.680 286.038 C 511.862 290.853, 513.468 292.257, 521.360 292.751 C 534.198 293.554, 544.173 288.927, 545.561 281.526 C 546.419 276.955, 543.193 270.011, 538.574 266.488 C 535.463 264.116, 533.822 263.654, 527.705 263.430 C 523.742 263.285, 518.149 263.478, 515.275 263.859 M 412.637 317.957 C 407.876 323.047, 407.564 323.701, 408.607 326.418 C 409.686 329.231, 413.190 328.137, 416.904 323.828 C 422.935 316.831, 423.329 316.101, 421.964 314.457 C 419.866 311.929, 417.416 312.848, 412.637 317.957 M 431.613 323.650 C 428.008 327.204, 426.967 328.913, 427.198 330.900 C 427.423 332.836, 428.146 333.575, 430.026 333.795 C 432.037 334.030, 433.260 333.129, 436.026 329.374 C 437.937 326.780, 439.909 324.121, 440.409 323.465 C 441.727 321.735, 440.372 319, 438.196 319 C 437.170 319, 434.207 321.093, 431.613 323.650" stroke="none" fill="#f9ecd3" fill-rule="evenodd"/></svg>